<svg id="calendar" xmlns="http://www.w3.org/2000/svg" viewBox="0 0 512 512"><title>calendar</title><path d="M164.89,90.79A25.12,25.12,0,0,0,190,65.66V26.12a25.13,25.13,0,0,0-50.26,0V65.66A25.13,25.13,0,0,0,164.89,90.79Zm185.29,0a25.13,25.13,0,0,0,25.13-25.13V26.12a25.13,25.13,0,0,0-50.26,0V65.66A25.13,25.13,0,0,0,350.18,90.79Zm87.07-54H397.39V65.66a47.2,47.2,0,1,1-94.41,0V36.81H212.09V65.66a47.2,47.2,0,1,1-94.41,0V36.81H74.75A70.58,70.58,0,0,0,4.18,107.38v335A70.58,70.58,0,0,0,74.75,513h362.5a70.58,70.58,0,0,0,70.58-70.58v-335A70.58,70.58,0,0,0,437.25,36.81Zm36.23,405.62a36.28,36.28,0,0,1-36.23,36.23H74.75a36.28,36.28,0,0,1-36.24-36.23V152h435V442.42Zm-266.76-1.36A25.76,25.76,0,1,0,181,415.31,25.76,25.76,0,0,0,206.72,441.07Zm0-98.56A25.76,25.76,0,1,0,181,316.75,25.75,25.75,0,0,0,206.72,342.51Zm-98.55,98.56a25.76,25.76,0,1,0-25.75-25.76A25.76,25.76,0,0,0,108.18,441.07Zm0-98.56a25.76,25.76,0,1,0-25.75-25.76A25.75,25.75,0,0,0,108.18,342.51ZM403.82,244a25.76,25.76,0,1,0-25.76-25.76A25.75,25.75,0,0,0,403.82,244Zm-98.55,0a25.76,25.76,0,1,0-25.76-25.76A25.75,25.75,0,0,0,305.28,244Zm0,98.54a25.76,25.76,0,1,0-25.76-25.76A25.75,25.75,0,0,0,305.28,342.51Zm98.55,0a25.76,25.76,0,1,0-25.76-25.76A25.75,25.75,0,0,0,403.82,342.51Zm-98.55,98.56a25.76,25.76,0,1,0-25.76-25.76A25.76,25.76,0,0,0,305.28,441.07ZM206.72,244A25.76,25.76,0,1,0,181,218.21,25.75,25.75,0,0,0,206.72,244Z"/></svg>
