<svg id="clock" xmlns="http://www.w3.org/2000/svg" viewBox="0 0 512 512"><title>clock</title><path d="M461,281.54C461,173,376.66,84.41,269.92,77.22V48.1H242.07V77.22C135.35,84.42,51,173,51,281.54c0,65.74,31,124.08,79.14,161.61l-27.39,46.5L137.49,513l34-44.78a203.77,203.77,0,0,0,167,1L371.76,513l34.82-23.35L380,444.58C429.16,407.12,461,348.14,461,281.54Zm-199.38,139H246.53v17.86a156.2,156.2,0,0,1-96.45-40.79l13.15-13.14-7.29-7.29-13.28,13.28a156.47,156.47,0,0,1-43.25-95.2h19.74V274.17H99.09A156.25,156.25,0,0,1,140,175.63l15.25,15.26,7.29-7.29-15.39-15.39a156.4,156.4,0,0,1,97.3-43.35v21.93h21.05v-22a156.39,156.39,0,0,1,98.66,42.77l-15.37,15.36,7.29,7.29,15.3-15.3a156.31,156.31,0,0,1,41.46,97.2H392.86v21.05H412.7A156.41,156.41,0,0,1,370,389.68l-13.25-13.26-7.29,7.28,13.19,13.19a156.26,156.26,0,0,1-95.1,41.36V420.51h-5.92ZM81.4,12.4A84.51,84.51,0,0,0,50.62,127.91L196.9,43.18A84.51,84.51,0,0,0,81.4,12.4Zm349.2,0a84.51,84.51,0,0,0-115.5,30.78l146.3,84.72A84.51,84.51,0,0,0,430.59,12.4ZM283.94,191.24l-32.22,79.61L199.5,251.8l-7.29,20,67.28,24.54,0.22-.59,1.07,0.43L300.54,198Z"/></svg>
