<svg id="question" xmlns="http://www.w3.org/2000/svg" viewBox="0 0 512 512"><title>icon</title><path d="M256,1C114.62,1,0,115.61,0,257S114.62,513,256,513,512,398.39,512,257,397.39,1,256,1ZM207.68,379.79a31.89,31.89,0,1,1,31.89,31.88A31.9,31.9,0,0,1,207.68,379.79ZM343.63,219.85a85.9,85.9,0,0,1-14.7,25.36c-11.85,14.15-25.89,22.72-37.44,29-7.72,4.17-14.53,7.39-18.77,9.77a20.06,20.06,0,0,0-5.26,3.83,6.32,6.32,0,0,0-1.5,2.83,19.46,19.46,0,0,0-.56,5.09v12.51A11.73,11.73,0,0,1,253.69,320H225.43a11.74,11.74,0,0,1-11.73-11.73V295.76a71,71,0,0,1,2.4-18.78,58.09,58.09,0,0,1,7.51-16.69c6.6-10.08,15.54-16.8,24-21.48,7.4-4.07,14.72-7.46,21.52-11.28s12.84-7.91,17.3-12.37a37.28,37.28,0,0,0,7.09-9.52c2.33-4.63,4-10.07,4-18.39a20.59,20.59,0,0,0-2.63-9.4,39.35,39.35,0,0,0-9.26-11.29A54,54,0,0,0,250.55,154c-16.29.06-27.19,3.88-35.59,8.62s-11,9.6-11,9.6a11.74,11.74,0,0,1-15,.31l-21.71-17.4a11.72,11.72,0,0,1-.33-18s6.76-10.43,22.45-19.38,36.32-15.49,61.24-15.43A106.78,106.78,0,0,1,304.81,117c15.43,9.15,27.9,21.74,35.85,36.88a72,72,0,0,1,8.53,33.38A93.68,93.68,0,0,1,343.63,219.85Z"/></svg>