<svg version="1.1" id="レイヤー_1" xmlns="http://www.w3.org/2000/svg" x="0" y="0" viewBox="0 0 272.43 285.94" xml:space="preserve"><style>.st0{fill:#22ac38}.st1{fill:#f8b62d}.st2{fill:#040000}.st3{fill:#fff}.st4{fill:#2aa239}</style><switch><g><path class="st0" d="M48.83 110.89c14.39-8.83 34.62-13.69 56.96-13.69 8.01 0 14.51-6.5 14.51-14.51s-6.5-14.51-14.51-14.51c-6.31 0-12.5.35-18.54 1L55.91 21.16c-4.38-6.71-13.37-8.6-20.08-4.22-6.71 4.38-8.6 13.37-4.22 20.08l25.19 38.6c-8.46 2.79-16.25 6.31-23.15 10.54C11.95 99.47 0 118.95 0 140.99s11.95 41.51 33.66 54.83c18.89 11.59 44.51 17.97 72.14 17.97 8.01 0 14.51-6.5 14.51-14.51s-6.5-14.51-14.51-14.51c-22.34 0-42.57-4.86-56.96-13.69-16.38-10.05-19.82-21.92-19.82-30.1-.01-14.82 10.77-24.55 19.81-30.09z"/><path class="st1" d="M223.22 41.64l-16.5-10.47 5.86-8.28c4.63-6.54 3.07-15.59-3.47-20.22-6.54-4.63-15.59-3.07-20.22 3.47l-6.69 9.46-16.32-10.37a9.676 9.676 0 0 0-13.35 2.98c-2.86 4.51-1.53 10.49 2.98 13.35l57.34 36.41a9.632 9.632 0 0 0 5.17 1.51c3.2 0 6.33-1.59 8.17-4.49 2.87-4.51 1.54-10.49-2.97-13.35z"/><path class="st0" d="M226 86.16c-12.71-7.79-28.46-13.22-45.81-15.95L195.9 47.2l-24.51-15.56-28.08 41.12c-2.45 2.6-3.95 6.09-3.95 9.93 0 8.01 6.5 14.51 14.51 14.51 22.34 0 42.57 4.86 56.96 13.69 16.38 10.05 19.82 21.92 19.82 30.1 0 14.83-10.78 24.55-19.82 30.1-14.39 8.83-34.62 13.69-56.96 13.69-8.01 0-14.51 6.5-14.51 14.51s6.5 14.51 14.51 14.51c27.63 0 53.24-6.38 72.14-17.97 21.7-13.32 33.66-32.79 33.66-54.83-.02-22.05-11.97-41.53-33.67-54.84z"/><circle class="st2" cx="97.75" cy="143.54" r="20.32"/><path class="st2" d="M180.22 144.54c0 11.22-9.1 19.32-20.32 19.32s-20.32-9.1-20.32-20.32 9.1-20.32 20.32-20.32 20.32 10.1 20.32 21.32z"/><circle class="st3" cx="96.06" cy="149.73" r="10.16"/><path class="st3" d="M108.53 136.65c0 2.04-1.66 3.7-3.7 3.7s-3.7-1.66-3.7-3.7 1.66-3.7 3.7-3.7c2.05 0 3.7 1.66 3.7 3.7z"/><circle class="st3" cx="158.26" cy="149.73" r="10.16"/><circle class="st3" cx="167.04" cy="136.65" r="3.7"/><circle transform="rotate(-34.055 234.918 212.661)" class="st1" cx="234.9" cy="212.66" r="37.52"/><path class="st3" d="M251.15 229.11l-8.7-2.23-.29 1.23-.83 3.81-.02.1c-.6 2.57-3.1 5.53-8.59 4.25-3.85-.89-4.57-2.05-4.22-3.58.26-1.14 1.22-2.11 2.45-1.83.15.04.3.07.43.15.84.4 1.7.76 2.49.94 1.43.33 2.6.03 3.04-1.9l.02-.1.92-4.21-24.8-5.5-.05-.01c-1.33-.31-1.75-1.45-1.51-2.48.24-1.04 1.18-1.96 2.52-1.65l24.73 5.79.34-1.69c.1-.44.29-.82.56-1.07-1.54-.31-3.12-.67-4.7-1.04-3.75-.87-7.53-1.85-11.18-2.75-3.34-.88-4.63-2.95-4.17-5.34.28-1.44.57-2.68.84-3.86.27-1.19.55-2.37.88-3.54.55-1.9 2.3-3.63 5.98-2.88 1.79.36 4.56 1 7.57 1.7l.57-2.47-14.34-3.28c-1.43-.33-1.94-1.49-1.71-2.48.23-.99 1.2-1.8 2.63-1.47l14.31 3.37.46-1.98c.33-1.43 1.69-1.9 2.88-1.62 1.18.28 2.2 1.29 1.87 2.72l-.46 1.98 14.68 3.36c1.38.32 1.8 1.46 1.57 2.45-.23.99-1.1 1.83-2.48 1.5l-14.66-3.45-.57 2.47c2.96.69 5.88 1.36 7.99 1.91 2.75.69 4.2 3 3.92 4.87-.2 1.1-.42 2.25-.68 3.38-.33 1.43-.71 2.85-1.08 4.22-.61 2.2-2.94 3.69-6.02 3.08l-.15-.03c.18.35.17.82.06 1.31l-.34 1.69 8.8 1.99c1.38.32 1.85 1.47 1.61 2.51-.24 1.04-1.19 1.96-2.52 1.65l-.05.01zM225 230.12c-1.22-1.69-2.81-2.68-4.28-3.54-.68-.42-.84-1.08-.69-1.72.25-1.09 1.38-2.13 2.66-1.83.89.21 6.99 3.08 6.32 5.94-.3 1.29-1.66 2.22-2.84 1.94-.45-.1-.86-.35-1.17-.79zm7.97-19.34l-8.89-2.06c-.09.4-.1.86-.19 1.26-.23 1.46.37 2.01 1.79 2.39 1.72.45 4.09 1 6.56 1.57l.73-3.16zm1.42-6.12c-2.62-.61-5.05-1.12-6.64-1.44-1.54-.31-2.33.4-2.6 1.32-.08.35-.27.72-.35 1.06l8.89 2.06.7-3zm2.83 7.11l-.73 3.16c2.47.57 4.79 1.11 6.68 1.5 1.28.3 2.19-.01 2.61-1.37.09-.4.29-.82.39-1.21l-8.95-2.08zm9.61-1.05c.08-.35.12-.75.2-1.1.35-1.95-.24-2.09-8.39-3.98l-.7 3.01 8.89 2.07z"/><path class="st4" d="M253.83 273.93h-13.54v-5.76c2.92-1.71 4.99-6.06 4.99-11.18 0-6.61-3.46-11.96-7.73-11.96-4.27 0-7.73 5.36-7.73 11.96 0 5.11 2.08 9.46 4.99 11.18v5.76h-19.97v-5.53c4.68-1.88 8.15-8.45 8.15-16.29 0-9.3-4.87-16.85-10.88-16.85s-10.88 7.54-10.88 16.85c0 7.84 3.46 14.41 8.15 16.29v5.53H195.4v-11.96c0-1.9-.96-3.67-2.56-4.7l-21.07-13.61a5.598 5.598 0 0 0-5.8-.16l-14.08 8.03-32.15-25.32c-2.03-1.6-4.9-1.6-6.94.01l-36.14 28.69a5.579 5.579 0 0 0-2.12 4.38v15.47H56.91v-5.71c4.68-1.88 8.15-8.45 8.15-16.29 0-9.3-4.87-16.85-10.88-16.85s-10.88 7.54-10.88 16.85c0 7.84 3.46 14.41 8.15 16.29v5.71h-25.4v-5.79c0-.26-.05-.5-.11-.73 2.97-1.66 5.1-6.06 5.1-11.24 0-6.61-3.46-11.96-7.73-11.96-4.27 0-7.73 5.36-7.73 11.96 0 5.18 2.13 9.58 5.1 11.24-.07.23-.11.48-.11.73v5.79H6.29c-3.09 0-5.59 2.5-5.59 5.59s2.5 5.59 5.59 5.59h73.86c3.09 0 5.59-2.5 5.59-5.59v-18.37l30.56-24.26 31.64 24.92a5.585 5.585 0 0 0 6.23.46l14.4-8.21 15.66 10.12v14.51c0 3.09 2.5 5.59 5.59 5.59h64.01c3.09 0 5.59-2.5 5.59-5.59s-2.51-5.59-5.59-5.59z"/><path class="st4" d="M105.14 258.61h8.19v8.19h-8.19zm12.11 0h8.19v8.19h-8.19zm47.17 10.17h8.19v8.19h-8.19zm-59.28 1.59h8.19v8.19h-8.19zm12.11 0h8.19v8.19h-8.19z"/></g></switch></svg>