<svg id="icons" xmlns="http://www.w3.org/2000/svg" viewBox="0 0 512 512"><title>icon</title><path id="build" d="M52.963,0V512H229.515V388.413H282.48V512H459.036V0ZM176.55,441.379H123.584V388.413H176.55Zm0-105.931H123.584V282.482H176.55Zm0-105.931H123.584V176.551H176.55Zm0-105.931H123.584V70.621H176.55ZM282.48,335.448H229.515V282.482H282.48Zm0-105.931H229.515V176.551H282.48Zm0-105.931H229.515V70.621H282.48ZM388.416,441.379h-52.97V388.413h52.97Zm0-105.931h-52.97V282.482h52.97Zm0-105.931h-52.97V176.551h52.97Zm0-105.931h-52.97V70.621h52.97Z"/></svg>