<svg id="icons" xmlns="http://www.w3.org/2000/svg" viewBox="0 0 512 512"><title>icon</title><path id="clock" d="M435.817,178.69044l26.35235-27.44038-40.36856-44.06459-23.36031,24.83234v.016A185.58379,185.58379,0,0,0,282.03889,84.38517L285.703,51.39272h43.5846V0l-143.906,5.87208V51.3927h42.32058l4.92807,36.8005c-56.57677,11.40816-110.22551,46.59263-145.474,101.53738-65.36089,101.8734-42.73658,232.96317,50.52869,292.772,93.23328,59.84081,221.811,25.74434,287.15594-76.129,46.99261-73.249,48.51265-161.58622,10.97613-227.68311ZM388.90433,383.33323c-51.45669,80.2091-152.65808,107.00945-226.08308,59.9208C89.41225,396.16537,71.62,292.964,123.0767,212.78688c51.44071-80.20908,152.65809-107.02546,226.08307-59.93682C422.5528,199.93873,440.36106,303.12413,388.90433,383.33323ZM290.711,264.3396h.048L274.5828,175.8264H255.99055L245.3024,266.01962h.112a58.5407,58.5407,0,0,0-11.00814,7.5041c-21.5043,18.56025-26.00036,48.52864-10.09613,66.9609,15.87221,18.40025,46.20862,18.30427,67.66492-.256,21.47229-18.56025,26.00034-48.52865,10.09613-66.9769A38.56185,38.56185,0,0,0,290.711,264.3396Z"/></svg>