<svg id="icons" xmlns="http://www.w3.org/2000/svg" viewBox="0 0 512 512"><title>icon</title><path id="display" d="M498.41024,25.99574C472.34485-10.19819,51.13837,49.165,23.64891,72.31821S-8.19279,384.9749,14.96044,399.43966c8.17644,5.12027,65.10747,7.53642,136.59929,7.34439-2.48013,8.68845-6.46435,18.881-12.84868,27.40945-12.60868,16.84889-37.33,25.20136-38.354,28.97756-2.17612,7.95242,1.088,29.66559,7.23238,33.28178,6.16033,3.63218,245.70911-3.63219,251.86944-10.16055,6.14434-6.49635,12.30464-28.94554,5.7923-33.28177-10.25656-6.81638-52.33879-7.80844-66.01951-49.73066,90.1328-4.11221,169.67305-11.69663,181.80169-22.6092C509.99487,354.57329,524.44364,62.18967,498.41024,25.99574Zm-226.09206,337.442c-6.33633,18.129-24.67331,28.19349-40.91418,22.48121-16.22487-5.69632-24.19329-25.00933-17.825-43.1063,6.36834-18.145,24.68932-28.20952,40.91419-22.4972C270.68608,326.01176,278.67051,345.32478,272.31818,363.43774Zm178.32953-94.261c-21.69714,20.2891-393.717,39.0581-405.30163,28.97755-11.58463-10.16055-2.89617-170.82511,7.23237-186.746C62.723,95.48745,449.20763,49.165,460.79223,67.982,472.34485,86.799,472.34485,248.91964,450.64771,269.17671Z"/></svg>