<svg id="icons" xmlns="http://www.w3.org/2000/svg" viewBox="0 0 512 512"><title>icon</title><path id="flower" d="M158.2449,121.39868c-4.23194,17.38584-19.57118,28.58116-34.26114,25.00543s-23.16787-20.56844-18.93593-37.95429S124.619,79.86866,139.309,83.44439,162.47684,104.01283,158.2449,121.39868Zm248.94223-12.96559c4.23194,17.38583-4.246,34.37855-18.93593,37.95428s-30.0292-7.6196-34.26114-25.00543,4.246-34.37856,18.93593-37.95428S402.9552,91.04725,407.18713,108.43309Zm71.788-36.26845c-9.152-16.048-35.184-18.416-58.128-5.296-.88.496-1.68,1.04-2.528,1.584a66.59745,66.59745,0,0,0,4.624-14.96c4.784-25.984-6.112-49.744-24.288-53.088-16.672-3.056-33.68,12.208-40.064,34.848-15.904-14.144-35.968-18.064-48.256-8.176-14.4,11.568-12.656,37.648,3.872,58.24005a65.94006,65.94006,0,0,0,14.592,13.44c-10.144.736-21.28,4.912-31.296,12.48-21.008,15.952-29.04,40.832-17.888,55.552,6.336,8.368,17.504,11.632,29.808,9.968-39.264,41.456-49.712,85.248-52.432,103.20008-8.48.992-16.928,2.144-25.184,3.488.048-21.184-4.272-60.88-30.736-106.97607,12.992,2.208,24.88-.944,31.52-9.68,11.168-14.72,3.136-39.6-17.92-55.552-10-7.584-21.136-11.744-31.296-12.48a65.58983,65.58983,0,0,0,14.592-13.44c16.56-20.592,18.304-46.672,3.904-58.24-12.272-9.904-32.336-5.984-48.24,8.16-6.336-22.64-23.36-37.904-40.048-34.848-18.16,3.344-29.024,27.12-24.24,53.104a66.44339,66.44339,0,0,0,4.608,14.944c-.848-.528-1.664-1.072-2.544-1.568-22.944-13.136-48.96-10.752-58.128,5.296s2,39.664,24.928,52.784a66.16743,66.16743,0,0,0,15.04,6.304,55.929,55.929,0,0,0-11.168,12.48c-12.864,19.488-11.84,42.864,2.272,52.176,14.128,9.312,36,1.056,48.864-18.432.112-.16.192-.336.304-.48.176,1.504.384,3.008.672,4.544,4.768,25.968,23.36,44.336,41.536,40.992,15.264-2.8,25.328-20.032,25.344-40.88,12.176,14.592,31.76,47.088,32.496,105.12008-46.704,9.408-83.56806,24.176-81.93606,37.664,3.424,28.272,7.664,39.424,10.896,48.03205.576,1.552,7.696,2.8,19.008,3.696,4.096,27.52,12.576,84.92807,14.48,100.144,5.584,44.656,134.41609,41.584,138.44807,22.336,2.752-13.184,17.44-83.104,26.384-125.95207,10.416-1.6,17.152-3.504,18.272-5.776,7.808-16.464,24.128-76,16.992-79.28005-22.24-10.304-59.824-12.384-99.00806-9.584,16.096-50.272,39.344-78.54406,54.176-92.44806,1.168,19.008,10.944,34.304,25.2,36.928,18.208,3.344,36.8-15.024,41.568-40.992.32-1.536.464-3.04.672-4.544a2.36751,2.36751,0,0,0,.336.48c12.848,19.504,34.72,27.744,48.848,18.432s15.152-32.688,2.288-52.176a56.30369,56.30369,0,0,0-11.152-12.48,66.05647,66.05647,0,0,0,15.024-6.304C477.00712,111.82866,488.14311,88.21265,478.97511,72.16464ZM120.92688,160.2767c-21.696-5.28-34.352-29.728-28.304-54.608,6.032-24.864,28.528-40.736,50.224-35.472,21.664,5.296,34.336,29.728,28.288,54.608C165.08691,149.66869,142.60689,165.5407,120.92688,160.2767Zm270.40019,0c-21.664,5.264-44.176-10.608-50.208-35.472-6.064-24.88,6.624-49.312,28.288-54.592,21.68-5.264,44.192,10.608,50.224,35.472C425.69507,130.54868,413.03909,154.9967,391.32707,160.2767Z"/></svg>