<svg id="icons" xmlns="http://www.w3.org/2000/svg" viewBox="0 0 512 512"><title>icon</title><path id="glass" d="M496.87226,423.839l-85.357-85.358a248.12942,248.12942,0,0,1-15.392,21.142l-31.484-31.485c1.357-1.771,2.7-3.556,4.014-5.371.885-1.225,1.756-2.45,2.596-3.689.148-.192.28-.398.414-.59.855-1.254,1.711-2.523,2.538-3.792,1.8-2.744,3.526-5.518,5.179-8.351a203.3302,203.3302,0,0,0,0-205.449,205.24513,205.24513,0,0,0-73.037-73.038,203.32391,203.32391,0,0,0-205.449,0c-1.239.723-2.464,1.461-3.689,2.228-1.564.959-3.128,1.948-4.663,2.951-2.729,1.785-5.429,3.63-8.07,5.548-.886.634-1.756,1.284-2.627,1.933q-1.371,1.041-2.744,2.081c-.841.664-1.697,1.328-2.538,2.006-1.653,1.328-3.29,2.671-4.899,4.058a203.93076,203.93076,0,0,0-23.002,23.002c-1.387,1.608-2.73,3.232-4.058,4.899-.678.841-1.343,1.697-2.006,2.538q-1.041,1.3725-2.08,2.744c-.649.87-1.298,1.741-1.933,2.626-1.918,2.641-3.762,5.341-5.548,8.071-1.004,1.535-1.992,3.099-2.951,4.663-.767,1.224-1.505,2.449-2.228,3.689a203.32881,203.32881,0,0,0-.001,205.45,205.24229,205.24229,0,0,0,73.037,73.037,203.322,203.322,0,0,0,205.448,0q2.832-1.659,5.592-3.408c.929-.575,1.844-1.166,2.759-1.77,1.269-.826,2.538-1.682,3.792-2.538.192-.133.398-.266.59-.413,1.239-.841,2.464-1.712,3.689-2.597,1.815-1.313,3.6-2.656,5.371-4.013l31.483,31.483a248.86665,248.86665,0,0,1-21.14,15.393l85.358,85.358a51.645,51.645,0,0,0,73.036-73.03809Zm-212.19-100.556c-.413.295-.826.575-1.254.841-.472.34-.959.649-1.446.959-.442.295-.886.575-1.328.856q-.864.55347-1.726,1.062c-.546.34-1.077.664-1.623.989-1.166.694-2.332,1.357-3.512,2.021-.089.059-.177.104-.28.162-.96.531-1.933,1.048-2.907,1.549-.384.222-.768.428-1.166.62-.767.398-1.549.782-2.33,1.166q-2.2365,1.107-4.516,2.124a144.46445,144.46445,0,0,1-117.95,0,145.35564,145.35564,0,0,1-73.037-73.037,144.11064,144.11064,0,0,1,7.642-132.662c.325-.546.649-1.077.988-1.623.915-1.52,1.874-3.025,2.878-4.5.546-.841,1.106-1.667,1.696-2.494q1.041-1.54949,2.17-3.054c1.135-1.549,2.301-3.084,3.496-4.589a146.17793,146.17793,0,0,1,23.195-23.195c1.505-1.195,3.04-2.361,4.589-3.497q1.506-1.1295,3.054-2.169c.827-.59,1.653-1.151,2.494-1.697,1.476-1.003,2.981-1.962,4.5-2.877.546-.34,1.077-.664,1.623-.989a144.56145,144.56145,0,0,1,205.698,183.346q-1.01848,2.28-2.124,4.515c-.384.782-.768,1.564-1.166,2.332-.192.398-.399.782-.62,1.166-.502.974-1.018,1.948-1.549,2.907-.059.103-.103.192-.162.28-.65,1.18-1.328,2.346-2.022,3.512-.325.546-.649,1.077-.988,1.623q-.50849.864-1.063,1.726c-.28.443-.56.886-.856,1.328-.31.487-.62.974-.959,1.446-.265.428-.546.841-.841,1.254-.28.413-.561.826-.856,1.239a6.17564,6.17564,0,0,1-.516.738c-.324.487-.679.989-1.033,1.476a136.95821,136.95821,0,0,1-8.587,10.756c-.545.635-1.106,1.254-1.667,1.874-.723.797-1.446,1.594-2.184,2.361-.856.9-1.741,1.8-2.627,2.686-.884.885-1.785,1.77-2.685,2.626-.767.738-1.564,1.46-2.361,2.184-.62.561-1.239,1.121-1.874,1.667a136.975,136.975,0,0,1-10.756,8.588c-.487.354-.989.708-1.476,1.033a5.953,5.953,0,0,1-.738.516C285.50825,322.722,285.09425,323.003,284.68226,323.283Z"/></svg>