<svg id="icons" xmlns="http://www.w3.org/2000/svg" viewBox="0 0 512 512"><title>icon</title><path id="login" d="M390.88273,234.65575c.128-.624,45.93693-230.85267-113.6983-234.50074,0,0-177.18758-14.52829-149.667,237.7168h0c-31.58464,4.06408-51.585,7.76015-51.585,7.76015v257.3652c110.22622,20.25639,352.79112,0,352.79112,0L436.06763,245.632A311.65417,311.65417,0,0,0,390.88273,234.65575ZM269.08826,44.2839s120.59443-20.00041,83.02568,185.34773l.192.032c-60.03321-5.5041-125.71454-2.16-178.03559,2.91207C174.27035,232.4637,143.24573,54.1561,269.08826,44.2839Zm1.6,353.35112,6.43214,60.78522-53.96909,2.128,7.12013-62.03326h.16c-28.00056-5.66412-49.313-24.2565-51.841-48.321-3.37607-31.68064,27.02455-60.96123,67.93737-65.24931,40.84882-4.33608,76.68956,17.87237,80.06562,49.649C329.60149,363.01033,305.313,389.39486,270.6883,397.635Z"/></svg>