<svg id="icons" xmlns="http://www.w3.org/2000/svg" viewBox="0 0 512 512"><title>icon</title><path id="logoff" d="M174.24763,232.557c-.032-.096-31.05614-178.4008,94.84842-188.27285,0,0,85.8724-14.09606,90.19239,104.88047l37.61617.56S397.19261-2.5961,277.19207.15593c0,0-177.2808-14.56007-149.72868,237.71307h.032c-31.64813,4.096-51.68022,7.76-51.68022,7.76V502.99019c110.3365,20.27207,352.9936,0,352.9936,0l7.376-257.36114C361.72046,221.14891,252.84,224.98894,174.24763,232.557Zm96.48043,165.10475,6.352,60.75228-54.00025,2.128,7.12-62.00027h.16c-28.00013-5.664-49.34423-24.25613-51.87224-48.33622-3.376-31.68014,27.05611-60.94428,67.96832-65.24828,40.96017-4.336,76.75234,17.87209,80.12835,49.60023C329.65632,363.02155,305.35221,389.43768,270.72806,397.66172Z"/></svg>