<svg id="icons" xmlns="http://www.w3.org/2000/svg" viewBox="0 0 512 512"><title>icon</title><path id="mapmark" d="M255.99548,0c-110.938,0-200.858,89.929-200.858,200.866,0,68.454,34.648,128.363,86.55,165.174,47.356,33.594,57.811,41.609,74.462,73.4,13.174,25.147,34.541,69.279,34.541,69.279a5.93657,5.93657,0,0,0,10.619,0s21.368-44.132,34.541-69.279c16.642-31.791,27.106-39.806,74.454-73.4,51.91-36.811,86.558-96.72,86.558-165.174C456.86148,89.929,366.92447,0,255.99548,0Zm0,335.473a134.6075,134.6075,0,1,1,134.606-134.608A134.60858,134.60858,0,0,1,255.99548,335.473Z"/></svg>