<svg id="icons" xmlns="http://www.w3.org/2000/svg" viewBox="0 0 512 512"><title>icon</title><path id="menu" d="M127.58782,44.10184v73.12h20.61259V.007H126.82105L93.39444,100.39735,58.08747.007H36.70811v117.2148H57.251v-73.12l27.437,73.16183h17.82775ZM246.25135.04187h-66.435V117.22181h68.38505v-15.181H200.35926V62.38884h36.56V47.27729h-36.56V15.18806h45.89209V.04187Zm98.67659,117.2218h19.42929L364.07841.04187h-20.6126V84.35263L293.67528.04187h-19.499V117.22181h20.6126V33.294ZM395.20642.04187V77.16611a59.89625,59.89625,0,0,0,2.57742,18.294,31.28317,31.28317,0,0,0,8.07741,12.98063,35.03948,35.03948,0,0,0,14.067,7.73674,70.97631,70.97631,0,0,0,20.40348,2.58359,78.05308,78.05308,0,0,0,22.005-2.695,36.64318,36.64318,0,0,0,14.76409-8.00132,30.0345,30.0345,0,0,0,8.28652-13.23119,59.16876,59.16876,0,0,0,2.57742-18.48189V.007H467.42191V77.43069A35.72137,35.72137,0,0,1,466.09919,87.57a19.619,19.619,0,0,1-4.45609,7.96668,19.89917,19.89917,0,0,1-8.14711,5.23688,36.3255,36.3255,0,0,1-12.46548,1.86634,32.85556,32.85556,0,0,1-11.4896-1.78962,20.53376,20.53376,0,0,1-7.80028-5.0488,19.70374,19.70374,0,0,1-4.52579-7.78562,34.35039,34.35039,0,0,1-1.39243-9.90952V.007H395.20982ZM22.71249,243.18314h466.575a10.4457,10.4457,0,0,1,10.44571,10.44571v13.92761a10.4457,10.4457,0,0,1-10.44571,10.44571H22.71249a10.44571,10.44571,0,0,1-10.44571-10.44571V253.62885A10.44571,10.44571,0,0,1,22.71249,243.18314Zm0,117.07551h466.575a10.4457,10.4457,0,0,1,10.44571,10.44571V384.632a10.4457,10.4457,0,0,1-10.44571,10.44571H22.71249A10.44571,10.44571,0,0,1,12.26678,384.632V370.70436A10.44571,10.44571,0,0,1,22.71249,360.25865Zm0,116.92232h466.575a10.446,10.446,0,0,1,10.44571,10.44571v13.92761A10.446,10.446,0,0,1,489.28751,512H22.71249a10.446,10.446,0,0,1-10.44571-10.44571V487.62668A10.446,10.446,0,0,1,22.71249,477.181Z"/></svg>