<svg id="icons" xmlns="http://www.w3.org/2000/svg" viewBox="0 0 512 512"><title>icon</title><path id="mypage" d="M425.2111.076S61.69051-1.46,52.50648,9.276c-9.2,10.736,50.60808,490.81682,59.7921,500.00083,9.2,9.216,239.26439-7.664,253.0564-10.736,13.792-3.056,96.09617-126.33621,95.08817-136.49623C459.48316,351.8526,425.2111.076,425.2111.076ZM117.4986,63.40413,381.131,53.35612l1.136,30.64005-263.61644,10.048Zm12.272,67.47212,258.30441-9.824,1.136,30.64006-258.2884,9.84Zm6.128,67.4881,251.7284-9.6,1.152,30.64005-251.74441,9.6Zm7.312,98.12817-1.168-30.64,251.7444-9.6,1.152,30.65606ZM343.899,375.83664c-7.664,10.752,7.664,104.32018,7.664,104.32018s-61.3441-124.25621-52.14408-134.99222c9.184-10.736,142.64023,0,142.64023,0S351.579,365.11662,343.899,375.83664Z"/></svg>