<svg id="icons" xmlns="http://www.w3.org/2000/svg" viewBox="0 0 512 512"><title>icon</title><path id="search" d="M495.272,423.55752s-68.542-59.952-84.937-76.328c-24.063-23.938-33.69-35.466-25.195-54.931,37.155-75.78,24.303-169.854-38.72-232.858-79.235-79.254-207.739-79.254-286.984,0-79.245,79.264-79.245,207.729,0,287.003,62.985,62.985,157.088,75.837,232.839,38.691,19.466-8.485,31.022,1.142,54.951,25.215,16.384,16.385,76.308,84.937,76.308,84.937,31.089,31.071,55.009,11.95,69.368-2.39C507.232,478.5465,526.362,454.63751,495.272,423.55752ZM286.017,286.0115a117.49216,117.49216,0,1,1,0-166.149A117.52694,117.52694,0,0,1,286.017,286.0115Z"/></svg>