<svg id="icons" xmlns="http://www.w3.org/2000/svg" viewBox="0 0 512 512"><title>icon</title><path id="store" d="M53.84259,372.67706S34.50894,499.58554,40.31968,506.68924c3.48341,4.244,149.57339,5.97809,267.02035,5.08059,1.27775-25.66158,6.2823-119.45488,11.27161-125.55463,5.79554-7.10372,79.236-10.9674,79.89012-3.2096.51719,6.25186,10.81529,94.12794,14.66377,126.92368,23.68409-.85184,38.75857-1.93183,40.09716-3.24,7.08849-7.1037-12.884-162.36614-12.884-162.36614ZM247.01175,477.68114c-6.96681,5.15666-166.09292,7.72736-170.61069,3.2096-4.50257-4.51779-3.86369-68.92271,3.86369-76.0112s168.78534-27.69989,172.649-22.54325S253.99377,472.50927,247.01175,477.68114ZM497.96889,264.44819c-3.62032-23.39509-31.381-200.39456-43.41325-210.02336-2.49465-1.99269-18.95337-2.43382-43.86959-1.76452-.22816,35.36643-3.98537,70.97624-11.36289,77.98868-15.21137,14.43559-278.87,34.71235-296.62167,22.04127C91.33861,144.56739,84.15884,109.566,83.79377,79.40189c-22.49761,3.2096-37.0701,6.16061-38.95631,8.51837C35.75627,99.25273,17.7308,264.09831,13.51725,303.61744a48.74884,48.74884,0,0,0-.83662,7.84908c-.04564.42591-.06085.65408-.06085.65408h.03042a46.75618,46.75618,0,0,0,8.275,27.274c14.8615,21.50886,44.56931,26.74157,66.352,11.69752a48.06774,48.06774,0,0,0,20.83958-39.6104,46.424,46.424,0,0,0,7.02765,15.95672c14.86151,21.50887,44.56931,26.71117,66.352,11.68233a48.1041,48.1041,0,0,0,20.61139-34.97093A50.61481,50.61481,0,0,0,209.7743,321.582c16.18489,23.39509,48.53947,29.08415,72.2692,12.68628A52.3449,52.3449,0,0,0,304.34336,297.259a46.60223,46.60223,0,0,0,7.43836,17.61478c14.87673,21.46323,44.55408,26.71117,66.32157,11.66712a47.85541,47.85541,0,0,0,19.97253-30.59A46.95693,46.95693,0,0,0,404.419,309.2c15.51561,22.40634,47.44425,27.13709,71.38694,10.5871C494.71367,306.70536,502.91257,284.32943,497.96889,264.44819ZM126.051,138.36115c14.80067,9.857,234.66578-5.902,247.36726-17.15842,12.68628-11.226,12.68628-116.96021,0-120.89995C360.71673-3.637,126.051,31.85116,115.46384,49.75493,104.89194,67.67393,111.25029,128.489,126.051,138.36115Z"/></svg>