<svg id="icons" xmlns="http://www.w3.org/2000/svg" viewBox="0 0 512 512"><title>icon</title><path id="team" d="M510.83675,230.47833c7.24808-52.40049-20.12818-99.48893-61.13659-105.153-40.99238-5.66405-80.12873,32.2243-87.37682,84.6088-4.86406,35.08832,5.87207,67.71263,25.74423,87.1848-16.28815,12.04811-27.44026,29.80829-35.08834,48.88046,1.104-36.46435-7.18406-75.32871-42.56039-91.64887,17.52015-16.96015,30.33628-41.95238,34.33632-70.97665,8.01606-58.04854-22.32022-110.193-67.71264-116.46508-45.40842-6.27206-88.75282,35.66433-96.7689,93.71287-5.76005,41.66438,8.30408,80.19274,33.47231,100.99294-31.6643,20.00018-53.34451,58.16054-66.52862,104.433-2.592-12.41613-8.65609-23.53623-20.65619-29.76029,18.56018-12.62411,32.75231-35.66433,36.59234-63.44059,6.28806-45.47242-17.47216-86.3368-53.05649-91.23285-35.61627-4.928-69.56859,27.95226-75.85665,73.42468-4.88,35.31233,8.36808,67.71262,31.16829,82.81677C4.592,362.19154,0,445.71234,0,445.71234l134.72125-15.53616c-.592,5.10405-1.152,10.32011-1.6,15.53616l203.32989-21.04021c-.592,8.17607-.816,13.96812-1.024,16.03217H472.42041s45.56841-105.889,5.968-144.84936C494.91659,280.54279,507.09272,257.47058,510.83675,230.47833Z"/></svg>