<svg id="icons" xmlns="http://www.w3.org/2000/svg" viewBox="0 0 512 512"><title>icon</title><path id="unlock" d="M404.233,197.867H179.417V118.05805a76.58248,76.58248,0,1,1,153.165,0V149.892h41.472V118.05805a118.05452,118.05452,0,1,0-236.109,0V197.867h-30.179a35.26585,35.26585,0,0,0-35.26585,35.26585V345.03C72.5,437.243,154.66,512,256.003,512c101.344,0,183.497-74.757,183.497-166.97V233.13394A35.267,35.267,0,0,0,404.233,197.867Zm-134.86,157.753,10.756,45.972H231.871L242.627,355.61206a35.93611,35.93611,0,1,1,26.746.00792Z"/></svg>